<?xml version="1.0" encoding="utf-8"?>
<!-- Generator: Adobe Illustrator 25.0.1, SVG Export Plug-In . SVG Version: 6.00 Build 0)  -->
<svg version="1.1" id="Layer_1" xmlns="http://www.w3.org/2000/svg" xmlns:xlink="http://www.w3.org/1999/xlink" x="0px" y="0px"
	 viewBox="0 0 512 512" style="enable-background:new 0 0 512 512;" xml:space="preserve">
<style type="text/css">
	.st0{fill:#FFFFFF;}
</style>
<g>
	<path class="st0" d="M302.28,348.56c-2.05-4.96-5.91-8.81-10.86-10.86c-9.83-4.07-10.59-13.17-10.59-15.86
		c0-2.69,0.76-11.78,10.6-15.86c10.22-4.24,15.09-16,10.85-26.21l-13.07-31.55c-2.05-4.95-5.91-8.81-10.86-10.86
		c-4.95-2.05-10.4-2.05-15.36,0c-9.82,4.07-16.8-1.82-18.7-3.72c-1.9-1.9-7.79-8.87-3.72-18.7c4.24-10.22-0.64-21.98-10.86-26.22
		l-31.55-13.07c-2.47-1.02-5.07-1.53-7.68-1.53c-2.6,0-5.2,0.51-7.68,1.54c-4.95,2.05-8.81,5.91-10.86,10.86
		c-4.07,9.83-13.17,10.59-15.86,10.59l0,0c-2.69,0-11.78-0.76-15.86-10.6c-4.24-10.22-16-15.07-26.21-10.85l-31.56,13.07
		c-10.22,4.24-15.08,16-10.85,26.22c4.07,9.83-1.82,16.8-3.72,18.7c-1.9,1.9-8.86,7.8-18.7,3.72c-10.22-4.22-21.97,0.64-26.22,10.86
		L9.91,279.78c-4.23,10.22,0.64,21.98,10.85,26.21l0.01,0.01c9.83,4.07,10.59,13.17,10.59,15.85c0.01,2.69-0.76,11.79-10.59,15.86
		c-4.95,2.05-8.81,5.91-10.86,10.86s-2.05,10.4,0,15.36l13.07,31.55c4.24,10.21,15.98,15.09,26.22,10.85
		c9.84-4.08,16.8,1.82,18.7,3.72c1.91,1.9,7.79,8.87,3.72,18.7c-2.05,4.95-2.05,10.4,0.01,15.35c2.05,4.95,5.91,8.81,10.86,10.86
		l31.55,13.07c10.22,4.23,21.97-0.64,26.22-10.86c4.07-9.82,13.17-10.59,15.85-10.59c2.69,0,11.79,0.76,15.86,10.59
		c2.05,4.95,5.91,8.81,10.86,10.86c4.95,2.06,10.4,2.05,15.36,0l31.54-13.07c4.95-2.05,8.81-5.91,10.86-10.86
		c2.06-4.95,2.05-10.41,0-15.36c-4.07-9.83,1.82-16.8,3.72-18.7c1.9-1.91,8.86-7.8,18.7-3.72c4.95,2.05,10.41,2.05,15.36,0
		c4.96-2.05,8.81-5.91,10.86-10.86l13.07-31.54C304.34,358.96,304.34,353.51,302.28,348.56z M156.11,381.96
		c-33.15,0-60.12-26.97-60.12-60.12s26.97-60.12,60.12-60.12s60.12,26.97,60.12,60.12C216.22,354.99,189.25,381.96,156.11,381.96z"
		/>
	<path class="st0" d="M484.61,164.96c-1.45-3.48-4.15-6.2-7.64-7.64c-6.91-2.86-7.45-9.26-7.45-11.15s0.54-8.29,7.46-11.15
		c7.19-2.98,10.61-11.25,7.64-18.44l-9.19-22.19c-1.44-3.48-4.15-6.2-7.64-7.64c-3.48-1.44-7.31-1.45-10.8,0
		c-6.91,2.86-11.82-1.28-13.15-2.62c-1.34-1.34-5.48-6.24-2.62-13.15c2.98-7.19-0.45-15.46-7.64-18.45l-22.19-9.19
		c-1.74-0.72-3.57-1.08-5.4-1.08s-3.66,0.36-5.4,1.08c-3.48,1.45-6.2,4.15-7.64,7.64c-2.86,6.92-9.26,7.45-11.15,7.45l0,0
		c-1.89,0-8.29-0.54-11.15-7.46c-2.98-7.18-11.25-10.61-18.44-7.63l-22.2,9.19c-7.18,2.98-10.61,11.25-7.63,18.44
		c2.86,6.91-1.28,11.82-2.62,13.15c-1.34,1.34-6.23,5.48-13.16,2.62c-7.19-2.97-15.46,0.46-18.44,7.64l-9.19,22.19
		c-2.97,7.19,0.45,15.46,7.64,18.44h0.01c6.91,2.86,7.45,9.26,7.45,11.15s-0.54,8.29-7.45,11.15c-3.48,1.44-6.2,4.15-7.64,7.64
		c-1.45,3.48-1.45,7.32,0,10.8l9.19,22.19c2.98,7.18,11.24,10.62,18.45,7.63c6.92-2.87,11.82,1.28,13.15,2.62
		c1.34,1.34,5.48,6.24,2.62,13.16c-1.44,3.48-1.44,7.32,0,10.8c1.45,3.48,4.15,6.2,7.64,7.64l22.19,9.19
		c7.18,2.97,15.46-0.45,18.44-7.64c2.86-6.91,9.26-7.45,11.15-7.45s8.29,0.54,11.15,7.45c1.44,3.48,4.15,6.2,7.64,7.64
		c3.48,1.45,7.32,1.45,10.8,0l22.19-9.19c3.48-1.44,6.2-4.15,7.64-7.64c1.45-3.48,1.45-7.32,0-10.8
		c-2.86-6.91,1.28-11.82,2.62-13.15c1.34-1.34,6.24-5.48,13.15-2.62c3.48,1.44,7.32,1.44,10.8,0c3.48-1.45,6.2-4.15,7.64-7.64
		l9.19-22.19C486.05,172.28,486.05,168.45,484.61,164.96z M381.77,188.46c-23.32,0-42.29-18.97-42.29-42.29s18.97-42.29,42.29-42.29
		s42.29,18.97,42.29,42.29C424.06,169.49,405.09,188.46,381.77,188.46z"/>
	<path class="st0" d="M502.08,383.16c-1.13-2.74-3.27-4.87-6.01-6.01c-5.43-2.25-5.86-7.28-5.86-8.77c0-1.49,0.42-6.51,5.86-8.76
		c5.65-2.34,8.34-8.85,6-14.49l-7.23-17.44c-1.13-2.74-3.26-4.87-6.01-6.01c-2.74-1.13-5.75-1.13-8.49,0
		c-5.43,2.25-9.29-1.01-10.34-2.06c-1.05-1.05-4.31-4.91-2.06-10.34c2.34-5.65-0.35-12.15-6.01-14.5l-17.44-7.23
		c-1.37-0.57-2.81-0.85-4.24-0.85c-1.44,0-2.87,0.29-4.25,0.85c-2.74,1.13-4.87,3.26-6.01,6c-2.25,5.43-7.28,5.86-8.76,5.86l0,0
		c-1.49,0-6.51-0.42-8.76-5.86c-2.34-5.65-8.85-8.34-14.49-6l-17.45,7.23c-5.65,2.34-8.34,8.84-6,14.5
		c2.25,5.43-1.01,9.29-2.06,10.34c-1.06,1.06-4.9,4.31-10.34,2.06c-5.65-2.33-12.15,0.36-14.5,6.01l-7.23,17.44
		c-2.34,5.65,0.35,12.15,6,14.49h0.01c5.43,2.25,5.86,7.28,5.86,8.76c0,1.49-0.42,6.52-5.86,8.76c-2.74,1.13-4.87,3.26-6.01,6.01
		c-1.13,2.74-1.13,5.75,0,8.49l7.23,17.45c2.34,5.64,8.84,8.35,14.5,6c5.44-2.25,9.29,1.01,10.34,2.06
		c1.06,1.05,4.31,4.91,2.06,10.34c-1.13,2.74-1.13,5.75,0,8.49s3.26,4.87,6,6.01l17.44,7.23c5.65,2.34,12.15-0.36,14.5-6.01
		c2.25-5.43,7.28-5.86,8.76-5.86c1.49,0,6.52,0.42,8.76,5.86c1.13,2.74,3.26,4.87,6.01,6.01c2.74,1.14,5.75,1.13,8.49,0l17.44-7.23
		c2.74-1.13,4.87-3.26,6.01-6.01c1.14-2.74,1.13-5.75,0-8.49c-2.25-5.43,1.01-9.29,2.06-10.34c1.05-1.06,4.9-4.31,10.34-2.06
		c2.74,1.13,5.75,1.13,8.49,0c2.74-1.13,4.87-3.27,6.01-6.01l7.23-17.44C503.22,388.92,503.22,385.9,502.08,383.16z M421.26,401.63
		c-18.33,0-33.24-14.91-33.24-33.24c0-18.33,14.91-33.24,33.24-33.24s33.24,14.91,33.24,33.24
		C454.5,386.72,439.59,401.63,421.26,401.63z"/>
</g>
</svg>
