<?xml version="1.0" encoding="utf-8"?>
<!-- Generator: Adobe Illustrator 25.0.1, SVG Export Plug-In . SVG Version: 6.00 Build 0)  -->
<svg version="1.1" id="Layer_1" xmlns="http://www.w3.org/2000/svg" xmlns:xlink="http://www.w3.org/1999/xlink" x="0px" y="0px"
	 viewBox="0 0 512 512" style="enable-background:new 0 0 512 512;" xml:space="preserve">
<style type="text/css">
	.st0{fill-rule:evenodd;clip-rule:evenodd;fill:#49BC8E;}
</style>
<path class="st0" d="M75.71,399c-12.75-7.8-20.55-21.68-20.55-36.6v-83.27c0-3.19,0.85-6.26,2.45-8.99
	c4.95-8.54,15.94-11.44,24.47-6.43l187.93,109.56c10.98,6.43,17.76,18.16,17.76,30.91v86.28c0,3.93-1.08,7.85-3.13,11.21
	c-6.2,10.13-19.41,13.32-29.54,7.11L75.71,399z M355.85,240.89c10.98,6.43,17.76,18.16,17.76,30.91v175.07
	c0,5.18-2.79,9.96-7.28,12.47l-41.15,23.17c-0.51,0.28-1.08,0.51-1.65,0.68v-97.21c0-12.58-6.6-24.25-17.42-30.73l-165.05-98.75
	V146.75c0-3.19,0.85-6.26,2.45-8.99c4.95-8.54,15.94-11.44,24.47-6.43L355.85,240.89z M438.09,111.58
	c11.04,6.37,17.81,18.21,17.81,30.96v255.72c0,5.24-2.9,10.07-7.51,12.58L409.4,431.9V253.87c0-12.58-6.6-24.19-17.36-30.68
	l-168.7-101.19V17.9c0-3.19,0.85-6.26,2.39-8.99c4.95-8.54,15.94-11.44,24.47-6.49L438.09,111.58z"/>
</svg>
