<?xml version="1.0" encoding="utf-8"?>
<!-- Generator: Adobe Illustrator 25.0.1, SVG Export Plug-In . SVG Version: 6.00 Build 0)  -->
<svg version="1.1" id="Layer_1" xmlns="http://www.w3.org/2000/svg" xmlns:xlink="http://www.w3.org/1999/xlink" x="0px" y="0px"
	 viewBox="0 0 512 512" style="enable-background:new 0 0 512 512;" xml:space="preserve">
<style type="text/css">
	.st0{fill:#EE212C;}
	.st1{fill:#FFFFFF;}
</style>
<ellipse class="st0" cx="255.53" cy="255.99" rx="256.47" ry="255.99"/>
<path class="st1" d="M180.78,324.03c-15.27,0-27.78-3.59-37.54-10.76c-9.62-7.3-14.44-17.68-14.44-31.13
	c0-2.82,0.32-6.28,0.96-10.38c1.67-9.22,4.04-20.3,7.12-33.24c8.73-35.22,31.25-52.84,67.56-52.84c9.88,0,18.74,1.66,26.56,4.99
	c7.83,3.2,13.99,8.07,18.48,14.6c4.49,6.4,6.74,14.09,6.74,23.06c0,2.69-0.32,6.08-0.96,10.18c-1.92,11.4-4.23,22.48-6.93,33.24
	c-4.49,17.55-12.25,30.68-23.29,39.39C214.02,319.74,199.26,324.03,180.78,324.03z M183.48,296.36c7.19,0,13.28-2.11,18.29-6.34
	c5.13-4.23,8.79-10.7,10.97-19.41c2.95-12.04,5.2-22.54,6.74-31.51c0.51-2.69,0.77-5.44,0.77-8.26c0-11.66-6.1-17.48-18.29-17.48
	c-7.19,0-13.35,2.11-18.48,6.34c-5,4.23-8.6,10.7-10.78,19.41c-2.31,8.58-4.62,19.09-6.93,31.51c-0.51,2.56-0.77,5.25-0.77,8.07
	C165,290.47,171.16,296.36,183.48,296.36z"/>
<path class="st1" d="M265.08,322.11c-1.41,0-2.5-0.45-3.27-1.35c-0.64-1.02-0.83-2.18-0.58-3.46l26.56-124.89
	c0.26-1.41,0.96-2.56,2.12-3.46c1.16-0.9,2.37-1.34,3.66-1.34h51.2c14.24,0,25.67,2.95,34.26,8.84
	c8.73,5.89,13.09,14.41,13.09,25.55c0,3.2-0.38,6.53-1.16,9.99c-3.21,14.73-9.69,25.62-19.44,32.66
	c-9.62,7.04-22.84,10.57-39.65,10.57h-25.99l-8.85,42.08c-0.26,1.41-0.96,2.56-2.12,3.46c-1.16,0.9-2.37,1.35-3.66,1.35H265.08z
	 M333.22,248.71c5.39,0,10.07-1.47,14.05-4.42c4.11-2.95,6.8-7.17,8.08-12.68c0.38-2.18,0.58-4.1,0.58-5.76
	c0-3.71-1.09-6.53-3.27-8.45c-2.18-2.05-5.9-3.07-11.16-3.07h-23.1l-7.31,34.39H333.22z"/>
</svg>
