<?xml version="1.0" encoding="utf-8"?>
<!-- Generator: Adobe Illustrator 25.0.1, SVG Export Plug-In . SVG Version: 6.00 Build 0)  -->
<svg version="1.1" id="Layer_1" xmlns="http://www.w3.org/2000/svg" xmlns:xlink="http://www.w3.org/1999/xlink" x="0px" y="0px"
	 viewBox="0 0 512 512" style="enable-background:new 0 0 512 512;" xml:space="preserve">
<style type="text/css">
	.st0{fill:#4958A7;}
</style>
<path class="st0" d="M442.13,0H68.94C30.63,0.04-0.42,31.09-0.46,69.4v373.19c0,38.33,31.07,69.4,69.4,69.4l0,0h373.19
	c38.33,0,69.4-31.07,69.4-69.4l0,0V69.33C511.45,31.05,480.42,0.04,442.13,0z M422.49,170.23c-5.2,5.27-11.39,9.47-18.2,12.37
	c1.47,65.65-15.89,130.36-50.02,186.46c18.91,26.49,12.76,63.29-13.73,82.19c-26.49,18.91-63.29,12.76-82.19-13.73
	c-8.17-11.45-11.98-25.45-10.73-39.46c-28.7-14.94-54.73-34.52-77.06-57.94l-5.5-5.37c-21.55-21.54-39.67-46.24-53.75-73.26
	c-32.38,3.28-61.28-20.3-64.57-52.68c-3.28-32.38,20.3-61.28,52.68-64.57c14.24-1.44,28.52,2.35,40.17,10.66
	c32.52-20.82,68.79-35.08,106.78-41.97h1.57h0.85c25.24-5.59,51.11-7.79,76.93-6.55c13.12-29.78,47.9-43.29,77.68-30.17
	s43.29,47.9,30.17,77.68c-2.79,6.33-6.67,12.13-11.48,17.11L422.49,170.23z M125.05,182.73c-10.78-11.2-28.6-11.55-39.81-0.77
	c-11.2,10.78-11.55,28.6-0.77,39.81c0.25,0.26,0.51,0.52,0.77,0.77c3.48,3.49,7.81,6,12.57,7.27c9.72,2.62,20.11-0.15,27.24-7.27
	c0.79-0.78,1.54-1.61,2.23-2.49C136.09,208.84,135.14,192.81,125.05,182.73L125.05,182.73z M326.18,384.45
	c-4.33-4.38-10-7.19-16.11-7.99c-7.68-1.03-15.45,1.14-21.47,6.02l-2.16,1.96c-7.24,7.22-9.98,17.81-7.14,27.63
	c1.4,4.64,4.02,8.83,7.59,12.11c10.92,11.02,28.7,11.1,39.72,0.18c7.23-7.16,10.02-17.68,7.29-27.48
	C332.48,392.12,329.82,387.83,326.18,384.45z M338.36,170.29c-9.11-9.13-14.98-21-16.7-33.78c-22.32-0.68-44.63,1.52-66.39,6.55
	h-0.46h-1.57h-1.18c-33,5.98-64.57,18.15-93.03,35.88c9.63,22.33,4.67,48.27-12.51,65.47c-2.04,1.98-4.23,3.79-6.55,5.43
	c13.67,25.43,31.35,48.49,52.38,68.29l0.59,0.59c19.28,20.22,41.64,37.26,66.26,50.48c1.69-2.32,3.55-4.51,5.57-6.55
	c16.99-17.06,42.66-22.06,64.82-12.64c15.02-24.07,26.07-50.4,32.74-77.98c0-0.46,0-0.85,0.33-1.18
	c7.97-27.15,11.56-55.39,10.61-83.67c-13.11-1.59-25.31-7.54-34.63-16.89H338.36z M360.29,108.55l-0.65,0.72
	c-10.85,11.15-10.6,28.99,0.56,39.84c11.16,10.85,28.99,10.6,39.84-0.56l0,0c11.2-10.78,11.55-28.6,0.77-39.81
	c-10.78-11.2-28.6-11.55-39.81-0.77c-0.26,0.25-0.52,0.51-0.77,0.77L360.29,108.55z"/>
</svg>
