<?xml version="1.0" encoding="utf-8"?>
<svg width="32" height="32" viewBox="0 0 32 32" fill="none" xmlns="http://www.w3.org/2000/svg"><circle cx="16" cy="16.0001" r="14.2222" fill="#0288D1"></circle><path fill-rule="evenodd" clip-rule="evenodd" d="M1.98706 18.4443C3.14591 25.1343 8.9788 30.2221 16 30.2221C23.0212 30.2221 28.8541 25.1343 30.013 18.4443H1.98706Z" fill="#03A9F4"></path><g clip-path="url(#clip0)"><path d="M6.51851 13.8519C6.2868 12.8238 6.57302 11.6119 7.99999 10.2964C10.3194 12.3959 9.65628 14.5791 8.88887 15.6297C8.88887 15.6297 8.98725 16.2223 11.2592 16.2223C13.5312 16.2223 29.037 16.2223 29.037 16.2223C29.037 16.2223 30.1232 25.7038 19.5555 25.7038C10.3152 25.7038 7.71969 18.5909 7.21302 16.7699C7.00325 16.7983 6.76799 16.8167 6.51851 16.8149C5.24621 16.8048 3.59702 16.121 2.96295 13.5651C4.64473 12.9826 5.72502 13.2463 6.51851 13.8519Z" fill="#03A9F4"></path><path d="M28.9393 18.5928C28.5037 21.4011 26.6768 25.7039 19.5556 25.7039C12.3348 25.7039 9.17156 21.3602 7.89216 18.5928H28.9393Z" fill="#0288D1"></path><path d="M18.4818 25.6671C19.0269 25.4763 21.4874 25.0211 21.9259 21.5557C24.4201 22.6597 26.6299 22.3705 27.6024 22.153C26.3212 24.0665 23.9461 25.7038 19.5555 25.7038C19.1864 25.7038 18.8302 25.6896 18.4818 25.6671Z" fill="#81D4FA"></path><path d="M19.5555 22.1482C18.901 22.1482 18.3704 21.6176 18.3704 20.963C18.3704 20.3085 18.901 19.7778 19.5555 19.7778C20.2101 19.7778 20.7407 20.3085 20.7407 20.963C20.7407 21.6176 20.2101 22.1482 19.5555 22.1482Z" fill="#FAFBFB"></path><path d="M30.8889 18.0212C30.8889 18.0212 29.62 18.1072 28.8586 17.3335C27.5897 18.4944 24.8386 18.0817 24.1212 17.3335C23.4018 18.4944 19.4258 18.2791 18.7071 17.3335C17.8611 18.3224 14.2235 18.537 13.293 17.3335C12.9688 18.3383 8.67808 18.6223 7.87882 17.3335C7.16077 18.0817 4.45234 18.6663 2.93097 17.3335C2.54927 18.1505 1.11114 18.0212 1.11114 18.0212V18.7089H30.8889V18.0212Z" fill="#FAFBFB"></path><ellipse cx="19.5556" cy="20.4445" rx="0.666667" ry="0.666666" fill="black"></ellipse></g><path fill-rule="evenodd" clip-rule="evenodd" d="M32 16C32 24.8366 24.8366 32 16 32C7.16344 32 0 24.8366 0 16C0 7.16344 7.16344 0 16 0C24.8366 0 32 7.16344 32 16ZM16 30.2222C23.8547 30.2222 30.2222 23.8547 30.2222 16C30.2222 8.14528 23.8547 1.77778 16 1.77778C8.14528 1.77778 1.77778 8.14528 1.77778 16C1.77778 23.8547 8.14528 30.2222 16 30.2222Z" fill="#FAFBFB"></path><path d="M26.2222 14.0001C26.2222 15.2274 25.2273 16.2223 24 16.2223C22.7727 16.2223 21.7778 15.2274 21.7778 14.0001C21.7778 12.7728 22.7727 11.7778 24 11.7778C25.2273 11.7778 26.2222 12.7728 26.2222 14.0001Z" fill="#FBE35C"></path><path d="M23.9884 12.5772C23.9718 12.5777 23.9554 12.5821 23.9408 12.5901C23.9262 12.5981 23.9136 12.6095 23.9042 12.6233L23.061 13.8597C23.0525 13.8721 23.0468 13.8862 23.0442 13.9011C23.0416 13.9159 23.0423 13.9311 23.046 13.9457C23.0498 13.9603 23.0567 13.9738 23.0662 13.9855C23.0756 13.9972 23.0875 14.0068 23.101 14.0135L23.9442 14.4345C23.9588 14.4418 23.975 14.4456 23.9913 14.4456C24.0077 14.4456 24.0238 14.4418 24.0385 14.4345L24.8817 14.0135C24.8952 14.0068 24.907 13.9972 24.9165 13.9855C24.926 13.9738 24.9328 13.9603 24.9366 13.9457C24.9404 13.9311 24.941 13.9159 24.9384 13.9011C24.9358 13.8862 24.9301 13.8721 24.9216 13.8597L24.0784 12.6233C24.0685 12.6087 24.055 12.5968 24.0393 12.5888C24.0236 12.5807 24.0061 12.5767 23.9884 12.5772ZM23.9913 12.8695V13.6312L24.6785 13.8795L23.9913 14.2224V13.6312L23.3142 13.8624L23.9913 12.8695ZM23.1442 14.2636C23.1247 14.2643 23.1057 14.2704 23.0895 14.2813C23.0732 14.2921 23.0603 14.3073 23.0522 14.3251C23.044 14.3428 23.041 14.3625 23.0434 14.3819C23.0458 14.4013 23.0535 14.4196 23.0658 14.4349L23.909 15.4889C23.9189 15.5013 23.9314 15.5112 23.9456 15.5181C23.9599 15.525 23.9755 15.5285 23.9913 15.5285C24.0071 15.5285 24.0228 15.525 24.037 15.5181C24.0513 15.5112 24.0638 15.5013 24.0737 15.4889L24.9169 14.4349C24.9319 14.4161 24.9401 14.3928 24.94 14.3687C24.94 14.3447 24.9317 14.3214 24.9166 14.3027C24.9015 14.284 24.8804 14.271 24.8569 14.2659C24.8334 14.2609 24.8089 14.264 24.7874 14.2747L23.9913 14.6729L23.1953 14.2747C23.1794 14.2668 23.1619 14.263 23.1442 14.2636ZM23.5304 14.678L23.9442 14.8849C23.9588 14.8922 23.975 14.896 23.9913 14.896V15.2542L23.5304 14.678Z" fill="#F7A92F"></path><path d="M21.7778 14.0001C21.7778 15.2274 20.7828 16.2223 19.5555 16.2223C18.3282 16.2223 17.3333 15.2274 17.3333 14.0001C17.3333 12.7728 18.3282 11.7778 19.5555 11.7778C20.7828 11.7778 21.7778 12.7728 21.7778 14.0001Z" fill="#FBE35C"></path><path d="M19.544 12.5772C19.5273 12.5777 19.511 12.5821 19.4963 12.5901C19.4817 12.5981 19.4692 12.6095 19.4598 12.6233L18.6166 13.8597C18.6081 13.8721 18.6024 13.8862 18.5998 13.9011C18.5972 13.9159 18.5978 13.9311 18.6016 13.9457C18.6054 13.9603 18.6122 13.9738 18.6217 13.9855C18.6312 13.9972 18.643 14.0068 18.6565 14.0135L19.4997 14.4345C19.5144 14.4418 19.5305 14.4456 19.5469 14.4456C19.5632 14.4456 19.5794 14.4418 19.594 14.4345L20.4372 14.0135C20.4507 14.0068 20.4626 13.9972 20.472 13.9855C20.4815 13.9738 20.4884 13.9603 20.4922 13.9457C20.4959 13.9311 20.4966 13.9159 20.494 13.9011C20.4914 13.8862 20.4857 13.8721 20.4772 13.8597L19.634 12.6233C19.624 12.6087 19.6106 12.5968 19.5949 12.5888C19.5791 12.5807 19.5616 12.5767 19.544 12.5772ZM19.5469 12.8695V13.6312L20.234 13.8795L19.5469 14.2224V13.6312L18.8698 13.8624L19.5469 12.8695ZM18.6997 14.2636C18.6802 14.2643 18.6613 14.2704 18.645 14.2813C18.6288 14.2921 18.6159 14.3073 18.6077 14.3251C18.5996 14.3428 18.5965 14.3625 18.5989 14.3819C18.6013 14.4013 18.6091 14.4196 18.6213 14.4349L19.4645 15.4889C19.4744 15.5013 19.4869 15.5112 19.5012 15.5181C19.5154 15.525 19.5311 15.5285 19.5469 15.5285C19.5627 15.5285 19.5783 15.525 19.5926 15.5181C19.6068 15.5112 19.6193 15.5013 19.6292 15.4889L20.4724 14.4349C20.4875 14.4161 20.4956 14.3928 20.4956 14.3687C20.4955 14.3447 20.4873 14.3214 20.4721 14.3027C20.457 14.284 20.436 14.271 20.4125 14.2659C20.389 14.2609 20.3644 14.264 20.3429 14.2747L19.5469 14.6729L18.7508 14.2747C18.735 14.2668 18.7174 14.263 18.6997 14.2636ZM19.0859 14.678L19.4997 14.8849C19.5144 14.8922 19.5305 14.896 19.5469 14.896V15.2542L19.0859 14.678Z" fill="#F7A92F"></path><path d="M17.3334 14.0001C17.3334 15.2274 16.3384 16.2223 15.1111 16.2223C13.8838 16.2223 12.8889 15.2274 12.8889 14.0001C12.8889 12.7728 13.8838 11.7778 15.1111 11.7778C16.3384 11.7778 17.3334 12.7728 17.3334 14.0001Z" fill="#FBE35C"></path><path d="M15.0996 12.5772C15.0829 12.5777 15.0666 12.5821 15.0519 12.5901C15.0373 12.5981 15.0248 12.6095 15.0154 12.6233L14.1722 13.8597C14.1637 13.8721 14.158 13.8862 14.1554 13.9011C14.1528 13.9159 14.1534 13.9311 14.1572 13.9457C14.161 13.9603 14.1678 13.9738 14.1773 13.9855C14.1868 13.9972 14.1986 14.0068 14.2121 14.0135L15.0553 14.4345C15.07 14.4418 15.0861 14.4456 15.1025 14.4456C15.1188 14.4456 15.135 14.4418 15.1496 14.4345L15.9928 14.0135C16.0063 14.0068 16.0182 13.9972 16.0276 13.9855C16.0371 13.9738 16.044 13.9603 16.0478 13.9457C16.0515 13.9311 16.0522 13.9159 16.0496 13.9011C16.047 13.8862 16.0413 13.8721 16.0328 13.8597L15.1896 12.6233C15.1796 12.6087 15.1662 12.5968 15.1505 12.5888C15.1347 12.5807 15.1172 12.5767 15.0996 12.5772ZM15.1025 12.8695V13.6312L15.7896 13.8795L15.1025 14.2224V13.6312L14.4254 13.8624L15.1025 12.8695ZM14.2553 14.2636C14.2358 14.2643 14.2169 14.2704 14.2006 14.2813C14.1844 14.2921 14.1715 14.3073 14.1633 14.3251C14.1552 14.3428 14.1521 14.3625 14.1545 14.3819C14.1569 14.4013 14.1647 14.4196 14.1769 14.4349L15.0201 15.4889C15.03 15.5013 15.0425 15.5112 15.0568 15.5181C15.071 15.525 15.0867 15.5285 15.1025 15.5285C15.1183 15.5285 15.1339 15.525 15.1482 15.5181C15.1624 15.5112 15.1749 15.5013 15.1848 15.4889L16.028 14.4349C16.0431 14.4161 16.0512 14.3928 16.0512 14.3687C16.0511 14.3447 16.0429 14.3214 16.0278 14.3027C16.0126 14.284 15.9916 14.271 15.9681 14.2659C15.9446 14.2609 15.92 14.264 15.8985 14.2747L15.1025 14.6729L14.3064 14.2747C14.2906 14.2668 14.273 14.263 14.2553 14.2636ZM14.6415 14.678L15.0553 14.8849C15.07 14.8922 15.0861 14.896 15.1025 14.896V15.2542L14.6415 14.678Z" fill="#F7A92F"></path><path d="M19.5555 10.2222C19.5555 11.4495 18.5606 12.4444 17.3333 12.4444C16.106 12.4444 15.1111 11.4495 15.1111 10.2222C15.1111 8.99492 16.106 8 17.3333 8C18.5606 8 19.5555 8.99492 19.5555 10.2222Z" fill="#FBE35C"></path><path d="M17.3218 8.79935C17.3051 8.79983 17.2887 8.80425 17.2741 8.81227C17.2595 8.82029 17.2469 8.83166 17.2376 8.84547L16.3943 10.0819C16.3859 10.0943 16.3801 10.1084 16.3775 10.1232C16.3749 10.1381 16.3756 10.1533 16.3794 10.1678C16.3831 10.1824 16.39 10.196 16.3995 10.2077C16.4089 10.2194 16.4208 10.2289 16.4343 10.2357L17.2775 10.6566C17.2921 10.664 17.3083 10.6678 17.3246 10.6678C17.341 10.6678 17.3571 10.664 17.3718 10.6566L18.215 10.2357C18.2285 10.2289 18.2403 10.2194 18.2498 10.2077C18.2593 10.196 18.2661 10.1824 18.2699 10.1678C18.2737 10.1533 18.2743 10.1381 18.2717 10.1232C18.2692 10.1084 18.2634 10.0943 18.2549 10.0819L17.4117 8.84547C17.4018 8.83086 17.3883 8.81898 17.3726 8.81092C17.3569 8.80286 17.3394 8.79889 17.3218 8.79935ZM17.3246 9.09168V9.85337L18.0118 10.1016L17.3246 10.4446V9.85337L16.6476 10.0846L17.3246 9.09168ZM16.4775 10.4858C16.458 10.4865 16.439 10.4926 16.4228 10.5035C16.4065 10.5143 16.3936 10.5295 16.3855 10.5472C16.3774 10.565 16.3743 10.5847 16.3767 10.6041C16.3791 10.6235 16.3869 10.6418 16.3991 10.6571L17.2423 11.7111C17.2522 11.7234 17.2647 11.7334 17.279 11.7403C17.2932 11.7471 17.3088 11.7507 17.3246 11.7507C17.3405 11.7507 17.3561 11.7471 17.3703 11.7403C17.3846 11.7334 17.3971 11.7234 17.407 11.7111L18.2502 10.6571C18.2652 10.6383 18.2734 10.615 18.2734 10.5909C18.2733 10.5669 18.265 10.5436 18.2499 10.5249C18.2348 10.5062 18.2137 10.4932 18.1902 10.4881C18.1667 10.483 18.1422 10.4861 18.1207 10.4969L17.3246 10.895L16.5286 10.4969C16.5128 10.489 16.4952 10.4851 16.4775 10.4858ZM16.8637 10.9002L17.2775 11.1071C17.2921 11.1144 17.3083 11.1182 17.3246 11.1182V11.4764L16.8637 10.9002Z" fill="#F7A92F"></path><path d="M24 10.2222C24 11.4495 23.0051 12.4444 21.7778 12.4444C20.5505 12.4444 19.5555 11.4495 19.5555 10.2222C19.5555 8.99492 20.5505 8 21.7778 8C23.0051 8 24 8.99492 24 10.2222Z" fill="#FBE35C"></path><path d="M21.7662 8.79935C21.7495 8.79983 21.7332 8.80425 21.7186 8.81227C21.7039 8.82029 21.6914 8.83166 21.682 8.84547L20.8388 10.0819C20.8303 10.0943 20.8246 10.1084 20.822 10.1232C20.8194 10.1381 20.82 10.1533 20.8238 10.1678C20.8276 10.1824 20.8345 10.196 20.8439 10.2077C20.8534 10.2194 20.8653 10.2289 20.8787 10.2357L21.722 10.6566C21.7366 10.664 21.7527 10.6678 21.7691 10.6678C21.7855 10.6678 21.8016 10.664 21.8162 10.6566L22.6595 10.2357C22.6729 10.2289 22.6848 10.2194 22.6943 10.2077C22.7037 10.196 22.7106 10.1824 22.7144 10.1678C22.7182 10.1533 22.7188 10.1381 22.7162 10.1232C22.7136 10.1084 22.7079 10.0943 22.6994 10.0819L21.8562 8.84547C21.8462 8.83086 21.8328 8.81898 21.8171 8.81092C21.8014 8.80286 21.7839 8.79889 21.7662 8.79935ZM21.7691 9.09168V9.85337L22.4563 10.1016L21.7691 10.4446V9.85337L21.092 10.0846L21.7691 9.09168ZM20.922 10.4858C20.9024 10.4865 20.8835 10.4926 20.8672 10.5035C20.851 10.5143 20.8381 10.5295 20.8299 10.5472C20.8218 10.565 20.8188 10.5847 20.8212 10.6041C20.8236 10.6235 20.8313 10.6418 20.8435 10.6571L21.6868 11.7111C21.6966 11.7234 21.7092 11.7334 21.7234 11.7403C21.7377 11.7471 21.7533 11.7507 21.7691 11.7507C21.7849 11.7507 21.8005 11.7471 21.8148 11.7403C21.829 11.7334 21.8416 11.7234 21.8514 11.7111L22.6947 10.6571C22.7097 10.6383 22.7179 10.615 22.7178 10.5909C22.7178 10.5669 22.7095 10.5436 22.6944 10.5249C22.6793 10.5062 22.6582 10.4932 22.6347 10.4881C22.6112 10.483 22.5867 10.4861 22.5652 10.4969L21.7691 10.895L20.973 10.4969C20.9572 10.489 20.9397 10.4851 20.922 10.4858ZM21.3082 10.9002L21.722 11.1071C21.7366 11.1144 21.7527 11.1182 21.7691 11.1182V11.4764L21.3082 10.9002Z" fill="#F7A92F"></path><path d="M21.7778 6.44439C21.7778 7.67169 20.7828 8.66661 19.5555 8.66661C18.3282 8.66661 17.3333 7.67169 17.3333 6.44439C17.3333 5.21709 18.3282 4.22217 19.5555 4.22217C20.7828 4.22217 21.7778 5.21709 21.7778 6.44439Z" fill="#FBE35C"></path><path d="M19.544 5.02152C19.5273 5.02199 19.511 5.02642 19.4963 5.03444C19.4817 5.04245 19.4692 5.05383 19.4598 5.06763L18.6166 6.30405C18.6081 6.31648 18.6024 6.33058 18.5998 6.34541C18.5972 6.36024 18.5978 6.37545 18.6016 6.39002C18.6054 6.40459 18.6122 6.41818 18.6217 6.42987C18.6312 6.44157 18.643 6.4511 18.6565 6.45783L19.4997 6.87882C19.5144 6.88614 19.5305 6.88995 19.5469 6.88995C19.5632 6.88995 19.5794 6.88614 19.594 6.87882L20.4372 6.45783C20.4507 6.4511 20.4626 6.44157 20.472 6.42987C20.4815 6.41818 20.4884 6.40459 20.4922 6.39002C20.4959 6.37545 20.4966 6.36024 20.494 6.34541C20.4914 6.33058 20.4857 6.31648 20.4772 6.30405L19.634 5.06763C19.624 5.05303 19.6106 5.04115 19.5949 5.03309C19.5791 5.02503 19.5616 5.02105 19.544 5.02152ZM19.5469 5.31385V6.07554L20.234 6.32381L19.5469 6.66678V6.07554L18.8698 6.30672L19.5469 5.31385ZM18.6997 6.70795C18.6802 6.70866 18.6613 6.71478 18.645 6.72563C18.6288 6.73648 18.6159 6.75164 18.6077 6.7694C18.5996 6.78717 18.5965 6.80685 18.5989 6.82624C18.6013 6.84564 18.6091 6.86398 18.6213 6.87923L19.4645 7.93325C19.4744 7.9456 19.4869 7.95558 19.5012 7.96243C19.5154 7.96929 19.5311 7.97285 19.5469 7.97285C19.5627 7.97285 19.5783 7.96929 19.5926 7.96243C19.6068 7.95558 19.6193 7.9456 19.6292 7.93325L20.4724 6.87923C20.4875 6.86047 20.4956 6.83713 20.4956 6.81308C20.4955 6.78904 20.4873 6.76573 20.4721 6.74703C20.457 6.72833 20.436 6.71536 20.4125 6.71028C20.389 6.70519 20.3644 6.70829 20.3429 6.71907L19.5469 7.11721L18.7508 6.71907C18.735 6.71114 18.7174 6.70731 18.6997 6.70795ZM19.0859 7.12235L19.4997 7.32924C19.5144 7.33656 19.5305 7.34037 19.5469 7.34036V7.69856L19.0859 7.12235Z" fill="#F7A92F"></path><defs><clipPath id="clip0"><rect width="28.4444" height="28.4444" fill="white" transform="matrix(-1 0 0 1 30.2222 2)"></rect></clipPath></defs></svg>
