<?xml version="1.0" encoding="utf-8"?>
<!-- Generator: Adobe Illustrator 25.0.1, SVG Export Plug-In . SVG Version: 6.00 Build 0)  -->
<svg version="1.1" id="Layer_1" xmlns="http://www.w3.org/2000/svg" xmlns:xlink="http://www.w3.org/1999/xlink" x="0px" y="0px"
	 viewBox="0 0 512 512" style="enable-background:new 0 0 512 512;" xml:space="preserve">
<style type="text/css">
	.st0{clip-path:url(#SVGID_2_);}
	.st1{fill:#23282A;}
</style>
<g>
	<defs>
		<rect id="SVGID_1_" x="29.76" y="81.18" width="451.33" height="349.62"/>
	</defs>
	<clipPath id="SVGID_2_">
		<use xlink:href="#SVGID_1_"  style="overflow:visible;"/>
	</clipPath>
	<g class="st0">
		<path class="st1" d="M411.82,112.32c-28.77-13.2-59.61-22.92-91.87-28.49c-0.59-0.11-1.17,0.16-1.48,0.7
			c-3.97,7.06-8.36,16.26-11.44,23.5c-34.69-5.19-69.2-5.19-103.18,0c-3.08-7.4-7.63-16.44-11.62-23.5c-0.3-0.52-0.89-0.79-1.48-0.7
			c-32.23,5.55-63.08,15.28-91.87,28.49c-0.25,0.11-0.46,0.29-0.6,0.52c-58.51,87.41-74.54,172.68-66.68,256.89
			c0.04,0.41,0.27,0.81,0.59,1.06c38.6,28.35,76,45.56,112.7,56.97c0.59,0.18,1.21-0.04,1.58-0.52
			c8.68-11.86,16.42-24.36,23.06-37.5c0.39-0.77,0.02-1.68-0.78-1.99c-12.27-4.66-23.96-10.33-35.21-16.78
			c-0.89-0.52-0.96-1.79-0.14-2.4c2.37-1.77,4.73-3.62,6.99-5.48c0.41-0.34,0.98-0.41,1.46-0.2c73.86,33.72,153.83,33.72,226.82,0
			c0.48-0.23,1.05-0.16,1.48,0.18c2.26,1.86,4.63,3.73,7.01,5.5c0.82,0.61,0.76,1.88-0.12,2.4c-11.24,6.57-22.93,12.12-35.22,16.76
			c-0.8,0.3-1.16,1.24-0.76,2.01c6.78,13.13,14.52,25.63,23.04,37.48c0.36,0.5,1,0.72,1.58,0.54
			c36.88-11.41,74.27-28.62,112.88-56.97c0.34-0.25,0.55-0.63,0.59-1.04c9.41-97.35-15.76-181.92-66.73-256.89
			C412.28,112.6,412.07,112.42,411.82,112.32z M180.57,318.45c-22.24,0-40.56-20.42-40.56-45.49s17.97-45.49,40.56-45.49
			c22.77,0,40.92,20.6,40.56,45.49C221.13,298.03,203.17,318.45,180.57,318.45z M330.54,318.45c-22.24,0-40.56-20.42-40.56-45.49
			s17.97-45.49,40.56-45.49c22.77,0,40.92,20.6,40.56,45.49C371.1,298.03,353.31,318.45,330.54,318.45z"/>
	</g>
</g>
</svg>
