<?xml version="1.0" encoding="utf-8"?>
<!-- Generator: Adobe Illustrator 25.0.1, SVG Export Plug-In . SVG Version: 6.00 Build 0)  -->
<svg version="1.1" id="Layer_1" xmlns="http://www.w3.org/2000/svg" xmlns:xlink="http://www.w3.org/1999/xlink" x="0px" y="0px"
	 viewBox="0 0 512 512" style="enable-background:new 0 0 512 512;" xml:space="preserve">
<style type="text/css">
	.st0{fill-rule:evenodd;clip-rule:evenodd;fill:#262262;}
</style>
<g>
	<path class="st0" d="M478.98,341.12l-44.1-11.04v-84.05h-75.01l-53.47-26.74l-17.84,35.65l61.9,30.95h44.56v34.24l-287.68-71.9
		l14.17-28.34l26.13,26.15h68.03v-39.86h-51.53l-53.57-53.59l-42.86,85.73l-25.95-6.5l-9.68,38.66l17.38,4.34l-0.02,0.04l13.11,6.54
		l33.56,50.36v53.76h39.86V319.7l-18.59-27.9l118.23,29.57v104h39.86v-94.04l100.52,25.13l-20.8,20.78v68.05h39.86v-51.53
		l26.05-26.05l48.24,12.06L478.98,341.12z M414.96,226.1c22.02,0,39.86-17.86,39.86-39.86c0-22.02-17.84-39.86-39.86-39.86
		c-22,0-39.86,17.84-39.86,39.86C375.1,208.25,392.96,226.1,414.96,226.1L414.96,226.1z M116.04,106.53
		c0-22.02,17.86-39.86,39.86-39.86c22.02,0,39.86,17.84,39.86,39.86c0,22-17.84,39.86-39.86,39.86
		C133.9,146.39,116.04,128.53,116.04,106.53L116.04,106.53z"/>
</g>
</svg>
