<?xml version="1.0" encoding="utf-8"?>
<!-- Generator: Adobe Illustrator 25.0.1, SVG Export Plug-In . SVG Version: 6.00 Build 0)  -->
<svg version="1.1" id="Layer_1" xmlns="http://www.w3.org/2000/svg" xmlns:xlink="http://www.w3.org/1999/xlink" x="0px" y="0px"
	 viewBox="0 0 512 512" style="enable-background:new 0 0 512 512;" xml:space="preserve">
<style type="text/css">
	.st0{fill:#262262;}
</style>
<g>
	<path class="st0" d="M445.38,176.67l-59.31-12.29l7.25,29.24l18.49,3.83c16.71,3.46,27.47,19.84,24.02,36.5l-38.55,186.04
		c9.9,0.92,19.17-5.73,21.24-15.67l42.31-204.21C463.04,189.4,456.09,178.88,445.38,176.67z"/>
	<path class="st0" d="M318.22,294.28l-6.72,32.44c-1.86,8.97,3.94,17.73,12.86,19.58l73.75,15.28l13.44-64.88l-73.75-15.28
		C328.88,279.57,320.07,285.36,318.22,294.28z M342.15,310.51l10.81,2.24l-2.25,10.87l-10.81-2.24L342.15,310.51z"/>
	<path class="st0" d="M316.11,104.15L296.52,77.6c-0.88-1.2-2.18-1.98-3.6-2.21c-1.48-0.19-2.97,0.17-4.15,1l-70.37,51.96
		L316.11,104.15z"/>
	<path class="st0" d="M381.32,191.14L361.19,110c-0.33-1.42-1.25-2.68-2.51-3.4c-1.25-0.77-2.72-1.02-4.15-0.64l-174.88,43.39
		L381.32,191.14z"/>
	<path class="st0" d="M71.25,381.88l289.9,60.06c10.76,2.23,21.27-4.67,23.5-15.43l11.21-54.12l-73.75-15.28
		c-14.92-3.09-24.52-17.71-21.43-32.63l6.72-32.44c3.09-14.92,17.71-24.52,32.63-21.43l73.75,15.28L425,231.76
		c2.22-10.71-4.73-21.28-15.43-23.5L142.7,152.97c-5.51-1.14-9.02-6.55-7.89-12.01l0.07-0.32c1.18-5.68,6.72-9.32,12.35-8.16
		c11.84,2.45,29.74,6.16,29.74,6.16l38.64-9.59l-79.42-16.46c-15.57-3.23-30.78,6.76-34,22.33L55.86,358.45
		C53.65,369.15,60.55,379.66,71.25,381.88z M123.15,195.89c0.63-3.03,3.5-4.91,6.53-4.29c2.97,0.62,4.91,3.5,4.29,6.53l-4.4,21.25
		c-0.62,2.97-3.55,4.9-6.53,4.29c-3.03-0.63-4.9-3.55-4.29-6.53L123.15,195.89z M114.3,238.61c0.62-2.97,3.5-4.91,6.53-4.29
		c2.97,0.62,4.9,3.55,4.29,6.53l-4.08,19.68c-0.62,2.97-3.55,4.9-6.53,4.29c-3.03-0.63-4.9-3.55-4.29-6.53L114.3,238.61z"/>
</g>
</svg>
