<?xml version="1.0" encoding="utf-8"?>
<!-- Generator: Adobe Illustrator 25.0.1, SVG Export Plug-In . SVG Version: 6.00 Build 0)  -->
<svg version="1.1" id="Layer_1" xmlns="http://www.w3.org/2000/svg" xmlns:xlink="http://www.w3.org/1999/xlink" x="0px" y="0px"
	 viewBox="0 0 512 512" style="enable-background:new 0 0 512 512;" xml:space="preserve">
<style type="text/css">
	.st0{fill-rule:evenodd;clip-rule:evenodd;fill:#191717;}
</style>
<path class="st0" d="M255.52,43.78c-120.11,0-217.51,97.39-217.51,217.53c0,96.09,62.32,177.62,148.76,206.39
	c10.88,1.99,14.85-4.72,14.85-10.49c0-5.16-0.19-18.84-0.29-37c-60.51,13.15-73.27-29.16-73.27-29.16
	c-9.89-25.13-24.15-31.82-24.15-31.82c-19.75-13.5,1.49-13.22,1.49-13.22c21.83,1.54,33.32,22.42,33.32,22.42
	c19.4,33.24,50.91,23.64,63.3,18.07c1.98-14.06,7.6-23.64,13.81-29.08c-48.3-5.49-99.08-24.15-99.08-107.51
	c0-23.75,8.48-43.16,22.39-58.37c-2.24-5.5-9.7-27.62,2.13-57.57c0,0,18.26-5.85,59.82,22.3c17.35-4.82,35.96-7.24,54.46-7.32
	c18.47,0.08,37.08,2.5,54.46,7.32c41.53-28.15,59.76-22.3,59.76-22.3c11.87,29.95,4.4,52.06,2.16,57.57
	c13.94,15.21,22.36,34.62,22.36,58.37c0,83.56-50.86,101.95-99.32,107.34c7.81,6.72,14.77,19.99,14.77,40.28
	c0,29.08-0.27,52.54-0.27,59.67c0,5.82,3.92,12.58,14.96,10.46c86.36-28.82,148.63-110.3,148.63-206.37
	C473.05,141.16,375.66,43.78,255.52,43.78z"/>
</svg>
