<?xml version="1.0" encoding="utf-8"?>
<!-- Generator: Adobe Illustrator 25.0.1, SVG Export Plug-In . SVG Version: 6.00 Build 0)  -->
<svg version="1.1" id="Layer_1" xmlns="http://www.w3.org/2000/svg" xmlns:xlink="http://www.w3.org/1999/xlink" x="0px" y="0px"
	 viewBox="0 0 512 512" style="enable-background:new 0 0 512 512;" xml:space="preserve">
<style type="text/css">
	.st0{fill:#262262;}
</style>
<g>
	<path class="st0" d="M148.39,150.16c16.32,21.97,4.07,23.47,11.67,29.09c1.05,0.78,30.55,22.6,68.99,51.05l173.04,44.67
		L253.8,92.14c0,0-20.87-25.84-55.2-28.48c-11.59,25.28,16.48,59.89,16.48,59.89l97.87,120.67l-138.09-102.2
		c0,0-16.41-14.46-43.07-7.79C128.76,138.34,139.2,137.77,148.39,150.16z M242.98,91.96l26.44,32.6
		C246.2,113.93,242.98,91.96,242.98,91.96z M164.47,173.76l15.14-20.46c0.51-0.68,1.47-0.83,2.16-0.33
		c0.69,0.51,0.83,1.48,0.32,2.16l-15.14,20.47c-0.51,0.68-1.47,0.83-2.16,0.32C164.1,175.41,163.96,174.45,164.47,173.76z"/>
	<path class="st0" d="M283.89,364.44l-107.36,10.93c-21.49-8.61-37.17-14.88-42.09-16.86c-26.23-10.51-42.73-4.06-42.73-4.06
		L150.54,378l-63.05,6.42c0,0,14.08,10.74,42.19,7.88c5.28-0.54,22.07-2.25,45.11-4.59l80.32,32.16l4.5-11.24
		c-9.77-3.91-19.44-7.79-28.87-11.56c4.59,1.08,9.51,1.62,14.66,1.24c0.43-0.03,0.85-0.07,1.28-0.11
		c13.27-1.35,25.37-8.61,36.11-21.48c11.82-1.2,23.55-2.39,34.93-3.55L283.89,364.44L283.89,364.44z M200.77,385.07
		c1.47-0.15,2.99-0.31,4.48-0.45c2.21,1.69,5.04,3.67,8.43,5.63C209.29,388.48,204.96,386.74,200.77,385.07z M245.15,394.45
		c-13.9,1.03-26.28-5.24-34-10.44c20.64-2.1,43.32-4.4,65.98-6.71C267.45,387.76,256.71,393.49,245.15,394.45z"/>
	<path class="st0" d="M455.62,354.54l-15.39-3.97l2.78-10.79l15.39,3.97c4.2-27.49-13.06-54.32-40.55-61.42L117.92,204.9
		c-29.31-7.57-59.31,10.12-66.88,39.43s10.12,59.31,39.43,66.88l299.94,77.43C417.9,395.74,445.99,380.62,455.62,354.54z
		 M385.02,354.14l-0.83,0.08l-9.97-2.57l4.45-17.25l-16.45-4.25l2.69-10.44l16.45,4.25l4.42-17.11l10.73,2.77l-4.42,17.11
		l16.45,4.25l-2.69,10.44l-16.45-4.25L385.02,354.14z"/>
</g>
</svg>
