<?xml version="1.0" encoding="utf-8"?>
<!-- Generator: Adobe Illustrator 25.0.1, SVG Export Plug-In . SVG Version: 6.00 Build 0)  -->
<svg version="1.1" id="Layer_1" xmlns="http://www.w3.org/2000/svg" xmlns:xlink="http://www.w3.org/1999/xlink" x="0px" y="0px"
	 viewBox="0 0 512 512" style="enable-background:new 0 0 512 512;" xml:space="preserve">
<style type="text/css">
	.st0{fill-rule:evenodd;clip-rule:evenodd;fill:#262262;}
</style>
<g>
	<path class="st0" d="M79.88,302.25v33.04l197.61,113.83l173.63-112.3c33.95-21.96,43.39-66.06,8.43-86.2l-26.03-14.99
		c-6.06,13.31-16.42,25.48-29.63,34.01l-146.7,94.82l-5.97-2.47l-8.6,5.57l24.81,14.05v39.75L97.97,324.3v-11.62L79.88,302.25
		L79.88,302.25z M276.62,375.71l168.59-101.24c19.92-11.96,21.12,31.27,1.89,43.54L276.73,426.68L276.62,375.71L276.62,375.71z"/>
	<path class="st0" d="M213.12,62.86L26.63,181.82v76.99l197.61,113.83l173.63-112.29c33.95-21.96,43.39-66.06,8.43-86.21
		L213.12,62.86L213.12,62.86z M192.1,109.71l-71.56,48.8l44.8,28.29l71.56-48.81C236.89,137.99,192.1,109.71,192.1,109.71z
		 M213.93,304.89v39.84L44.73,247.82v-37.9L213.93,304.89L213.93,304.89z M223.13,350v-50.63l168.84-101.38
		c19.92-11.96,21.12,31.27,1.89,43.54L223.13,350L223.13,350z"/>
</g>
</svg>
