<?xml version="1.0" encoding="utf-8"?>
<!-- Generator: Adobe Illustrator 25.0.1, SVG Export Plug-In . SVG Version: 6.00 Build 0)  -->
<svg version="1.1" id="Layer_1" xmlns="http://www.w3.org/2000/svg" xmlns:xlink="http://www.w3.org/1999/xlink" x="0px" y="0px"
	 viewBox="0 0 512 512" style="enable-background:new 0 0 512 512;" xml:space="preserve">
<style type="text/css">
	.st0{fill:#010101;}
</style>
<g id="Logo_1_">
	<path id="white_background" class="st0" d="M433.74,167.26c0.27,3.95,0.27,7.9,0.27,11.89c0,121.5-92.49,261.63-261.63,261.63
		v-0.07c-49.96,0.07-98.89-14.24-140.95-41.22c7.26,0.87,14.57,1.31,21.89,1.33c41.4,0.04,81.62-13.86,114.2-39.44
		c-39.35-0.75-73.85-26.4-85.9-63.85c13.78,2.66,27.99,2.11,41.51-1.58c-42.9-8.67-73.76-46.36-73.76-90.13c0-0.4,0-0.78,0-1.17
		c12.78,7.12,27.09,11.07,41.73,11.51c-40.4-27-52.86-80.75-28.46-122.77c46.68,57.45,115.56,92.37,189.51,96.06
		c-7.41-31.94,2.71-65.4,26.6-87.85c37.03-34.81,95.28-33.03,130.09,3.99c20.59-4.06,40.33-11.62,58.39-22.32
		c-6.86,21.28-21.23,39.36-40.42,50.85c18.23-2.15,36.03-7.03,52.8-14.48C467.28,138.13,451.73,154.25,433.74,167.26z"/>
</g>
</svg>
