<?xml version="1.0" encoding="utf-8"?>
<!-- Generator: Adobe Illustrator 25.0.1, SVG Export Plug-In . SVG Version: 6.00 Build 0)  -->
<svg version="1.1" id="Layer_1" xmlns="http://www.w3.org/2000/svg" xmlns:xlink="http://www.w3.org/1999/xlink" x="0px" y="0px"
	 viewBox="0 0 512 512" style="enable-background:new 0 0 512 512;" xml:space="preserve">
<style type="text/css">
	.st0{fill:#21335C;}
	.st1{fill:#969595;}
</style>
<g id="etherscan-logo-circle" transform="translate(-219.378 -213.33)">
	<path id="Path_1" class="st0" d="M344.25,458.61c0-10.5,8.51-19.02,19.02-19.02c0.03,0,0.06,0,0.09,0l31.68,0.1
		c10.52,0,19.05,8.53,19.05,19.05c0,0,0,0,0,0v119.79c3.57-1.06,8.15-2.18,13.16-3.36c7.17-1.69,12.23-8.08,12.24-15.45V411.13
		c0-10.52,8.53-19.05,19.05-19.05h31.74c10.52,0,19.04,8.53,19.05,19.05v137.92c0,0,7.94-3.22,15.69-6.49
		c5.88-2.49,9.7-8.25,9.71-14.63V363.51c0-10.52,8.52-19.05,19.04-19.05c0,0,0,0,0,0h31.74c10.52,0,19.05,8.53,19.05,19.05V498.9
		c27.52-19.94,55.41-43.93,77.55-72.78c6.52-8.5,8.35-19.71,4.87-29.85c-30.68-89.42-114.22-149.95-208.75-151.25
		c-124.42-1.67-227.24,99.89-227.23,224.32c-0.12,39.37,10.15,78.08,29.79,112.21c5.53,9.53,16.08,14.99,27.05,14.01
		c6.01-0.53,13.48-1.28,22.37-2.32c8.01-0.91,14.06-7.68,14.07-15.74L344.25,458.61"/>
	<path id="Path_2" class="st1" d="M343.56,650.73C443.73,723.6,584,701.47,656.87,601.3c27.9-38.35,42.92-84.55,42.91-131.97
		c0-5.17-0.24-10.27-0.59-15.35C617.24,576.19,465.93,633.33,343.56,650.73"/>
</g>
</svg>
