<?xml version="1.0" encoding="utf-8"?>
<!-- Generator: Adobe Illustrator 25.0.1, SVG Export Plug-In . SVG Version: 6.00 Build 0)  -->
<svg version="1.1" id="Layer_1" xmlns="http://www.w3.org/2000/svg" xmlns:xlink="http://www.w3.org/1999/xlink" x="0px" y="0px"
	 viewBox="0 0 512 512" style="enable-background:new 0 0 512 512;" xml:space="preserve">
<style type="text/css">
	.st0{fill:#4383C4;}
</style>
<path class="st0" d="M319.25,46.36v81.76c0,26.49-21.48,47.96-47.98,47.95h-0.7l0,0c-13.31-0.09-25.24,0-25.24,0
	c-2.28,0-4.76-0.25-6.95-0.03c-14.96,1.53-27.9,8.32-38.82,20.36c-0.31,0.34-0.58,0.69-0.89,1.02
	c-8.76,11.39-13.61,26.07-13.61,41.93v0.77c0,10.19,2.07,19.91,5.87,28.58c3.81,8.69,1.87,18.78-5.4,24.87
	c-7.14,5.97-15.61,13.01-21.32,17.58c-16.55-18.8-26.26-43.38-26.26-70.27v-0.77c0-58.41,46.74-107.08,110.21-107.08
	c3.96,0,16.9,0,22.93,0V37.52c-5.14-0.37-10.31-0.61-15.54-0.61C134.55,36.91,36.47,135,36.47,255.99
	c0,98.83,65.45,182.34,155.35,209.63v-81.1c0-26.77,21.7-48.47,48.47-48.46h0.2l0,0c13.31,0.09,25.24,0,25.24,0
	c2.28,0,4.76,0.25,6.95,0.03c14.96-1.53,27.9-8.32,38.82-20.36c0.31-0.34,0.6-0.69,0.89-1.02c8.76-11.39,13.61-26.07,13.61-41.93
	v-0.77c0-7.96-3.34-18.55-6.69-27.18c-3.71-9.55-0.86-20.52,7-27.09c6.78-5.68,13.66-11.26,20.56-16.78
	c16.55,18.8,26.26,43.38,26.26,70.27v0.77c0,58.41-46.74,107.08-110.21,107.08c-3.96,0-16.9,0-22.94,0v95.4
	c5.14,0.37,10.31,0.61,15.54,0.61c120.99,0,219.08-98.09,219.08-219.08C474.6,157.17,409.16,73.65,319.25,46.36z"/>
</svg>
