<?xml version="1.0" encoding="utf-8"?>
<!-- Generator: Adobe Illustrator 25.0.1, SVG Export Plug-In . SVG Version: 6.00 Build 0)  -->
<svg version="1.1" id="Layer_1" xmlns="http://www.w3.org/2000/svg" xmlns:xlink="http://www.w3.org/1999/xlink" x="0px" y="0px"
	 viewBox="0 0 512 512" style="enable-background:new 0 0 512 512;" xml:space="preserve">
<style type="text/css">
	.st0{fill-rule:evenodd;clip-rule:evenodd;fill:#FFFFFF;}
</style>
<g>
	<path class="st0" d="M64.76,306.27v35.9l214.76,123.71l188.69-122.04c36.89-23.86,47.16-71.79,9.16-93.68l-28.29-16.29
		c-6.58,14.47-17.85,27.69-32.2,36.97L257.45,373.88l-6.49-2.69l-9.35,6.05l26.97,15.27v43.19L84.42,330.23V317.6L64.76,306.27
		L64.76,306.27z M278.57,386.09l183.22-110.02c21.65-13,22.96,33.98,2.06,47.32L278.69,441.5L278.57,386.09L278.57,386.09z"/>
	<path class="st0" d="M209.57,46.1L6.9,175.39v83.67l214.76,123.71l188.69-122.04c36.89-23.86,47.16-71.8,9.16-93.69L209.57,46.1
		L209.57,46.1z M186.72,97.01l-77.77,53.04l48.68,30.74l77.77-53.04C235.4,127.75,186.72,97.01,186.72,97.01z M210.45,309.14v43.29
		L26.56,247.11v-41.18L210.45,309.14L210.45,309.14z M220.44,358.16v-55.02l183.49-110.18c21.65-13,22.96,33.99,2.06,47.32
		L220.44,358.16L220.44,358.16z"/>
</g>
</svg>
